<svg class="border shadow-md" viewBox="0 0 1081.52 608.355" xmlns="http://www.w3.org/2000/svg" preserveAspectRatio="none" style="width: 1081.52px; height: 608.355px;"><rect class="bg" id="bg" x="0" y="0" width="1081.52" height="608.355" fill="#ffffff"/><g transform="rotate(180 540.76 304.1775)"><path d="M -360.51 498.36 S -190.25 489.36&#10;            0.00 498.36 169.51 454.36&#10;            360.51 498.36 530.76 418.36&#10;            721.01 498.36 891.27 457.36&#10;            1081.52 498.36 1251.77 415.36&#10;            1442.03 498.36 h 110 V 1208.355 H -360.51 Z" fill="#42477F"/><path d="M -360.51 135.00 S -190.25 40.00&#10;            0.00 135.00 170.25 77.50&#10;            360.51 135.00 530.76 22.00&#10;            721.01 135.00 891.27 52.00&#10;            1081.52 135.00 1251.77 39.00&#10;            1442.03 135.00 h 110 V -600 H -360.51 Z" fill="#8DACD7"/></g></svg>